<svg width="28" height="32" viewBox="0 0 28 32" fill="none" xmlns="http://www.w3.org/2000/svg">
<path d="M14 0L0 5.81818V14.5455C0 22.6182 5.97333 30.1673 14 32C22.0267 30.1673 28 22.6182 28 14.5455V5.81818L14 0ZM14 6.80727C14.7778 6.80727 15.4778 7.43273 15.4778 8.18909V13.2509L23.3333 17.8327V19.68L15.4778 17.3818V22.4291L17.4378 23.8109V25.1927L14 24.2618L10.5622 25.1927V23.8109L12.5222 22.4291V17.3818L4.66667 19.68V17.8327L12.5222 13.2509V8.18909C12.5222 7.43273 13.2222 6.80727 14 6.80727Z" fill="white"/>
</svg>
